<?xml version="1.0" standalone="no"?>
<svg width="963" height="739" viewBox="0 0 963 739"
  xml:space="preserve"
  version="1.1"
  xmlns="http://www.w3.org/2000/svg">

<title>SVG graphic of net "C:\users\fgimenez\My Documents\Documents\Stanford\projects\completeness\results\mass_net.dne" generated by GimenezF at StanfordU using Netica 5.12 on Sep 09, 2014 at 18:50:23.</title>

<polygon points="314.094,187.73 309.107,193.985 303,184 " fill="#000000" stroke="none"/>
<polyline points="486,330 311,191 " stroke="#000000" stroke-width="1" fill="none"/>
<polygon points="230.489,171.237 226.369,178.094 219,169 " fill="#000000" stroke="none"/>
<polyline points="486,330 228,174 " stroke="#000000" stroke-width="1" fill="none"/>
<polygon points="207.25,458.697 210.656,465.936 199,467 " fill="#000000" stroke="none"/>
<polyline points="486,330 209,463 " stroke="#000000" stroke-width="1" fill="none"/>
<polygon points="133.796,457.775 141.404,455.302 141,467 " fill="#000000" stroke="none"/>
<polyline points="120,402 138,457 " stroke="#000000" stroke-width="1" fill="none"/>
<polygon points="252.857,521.866 257.998,527.995 247,532 " fill="#000000" stroke="none"/>
<polyline points="486,330 255,525 " stroke="#000000" stroke-width="1" fill="none"/>
<polygon points="201.486,520.835 209.479,521.186 205,532 " fill="#000000" stroke="none"/>
<polyline points="222,120 205,522 " stroke="#000000" stroke-width="1" fill="none"/>
<polygon points="363.274,635.299 370.727,638.208 363,647 " fill="#000000" stroke="none"/>
<polyline points="486,330 367,637 " stroke="#000000" stroke-width="1" fill="none"/>
<polygon points="295.243,586.754 301.71,591.464 292,598 " fill="#000000" stroke="none"/>
<polyline points="486,330 298,590 " stroke="#000000" stroke-width="1" fill="none"/>
<polygon points="251.674,588.871 259.249,586.298 259,598 " fill="#000000" stroke="none"/>
<polyline points="132,222 256,588 " stroke="#000000" stroke-width="1" fill="none"/>
<polygon points="222.193,312.578 221.777,320.567 211,316 " fill="#000000" stroke="none"/>
<polyline points="486,330 221,317 " stroke="#000000" stroke-width="1" fill="none"/>
<polygon points="445.326,646.605 453.27,647.549 448,658 " fill="#000000" stroke="none"/>
<polyline points="486,330 449,648 " stroke="#000000" stroke-width="1" fill="none"/>
<polygon points="401.781,652.293 407.834,647.062 412,658 " fill="#000000" stroke="none"/>
<polyline points="114,312 405,650 " stroke="#000000" stroke-width="1" fill="none"/>
<polygon points="523.595,647.618 531.526,646.571 529,658 " fill="#000000" stroke="none"/>
<polyline points="486,330 528,648 " stroke="#000000" stroke-width="1" fill="none"/>
<polygon points="491.821,652.222 497.91,647.033 502,658 " fill="#000000" stroke="none"/>
<polyline points="132,222 495,650 " stroke="#000000" stroke-width="1" fill="none"/>
<polygon points="218.032,377.97 219.562,385.822 208,384 " fill="#000000" stroke="none"/>
<polyline points="486,330 218,382 " stroke="#000000" stroke-width="1" fill="none"/>
<polygon points="113.018,366.879 120.982,366.121 118,377 " fill="#000000" stroke="none"/>
<polyline points="116,356 117,367 " stroke="#000000" stroke-width="1" fill="none"/>
<polygon points="606.144,638.323 613.553,635.304 614,647 " fill="#000000" stroke="none"/>
<polyline points="486,330 610,637 " stroke="#000000" stroke-width="1" fill="none"/>
<polygon points="567.408,645.382 571.155,638.314 579,647 " fill="#000000" stroke="none"/>
<polyline points="120,402 570,642 " stroke="#000000" stroke-width="1" fill="none"/>
<polygon points="674.309,598.436 680.789,593.744 684,605 " fill="#000000" stroke="none"/>
<polyline points="486,330 678,596 " stroke="#000000" stroke-width="1" fill="none"/>
<polygon points="733.964,541.102 739.045,534.923 745,545 " fill="#000000" stroke="none"/>
<polyline points="486,330 737,538 " stroke="#000000" stroke-width="1" fill="none"/>
<polygon points="720.06,603.6 716.391,596.491 728,595 " fill="#000000" stroke="none"/>
<polyline points="604,659 719,600 " stroke="#000000" stroke-width="1" fill="none"/>
<polygon points="760.346,465.917 763.764,458.684 772,467 " fill="#000000" stroke="none"/>
<polyline points="486,330 763,463 " stroke="#000000" stroke-width="1" fill="none"/>
<polygon points="789.519,527.342 784.156,521.406 795,517 " fill="#000000" stroke="none"/>
<polyline points="624,672 787,524 " stroke="#000000" stroke-width="1" fill="none"/>
<polygon points="752.438,385.822 753.968,377.97 764,384 " fill="#000000" stroke="none"/>
<polyline points="486,330 754,382 " stroke="#000000" stroke-width="1" fill="none"/>
<polygon points="820.617,437.393 815.198,431.508 826,427 " fill="#000000" stroke="none"/>
<polyline points="534,696 818,434 " stroke="#000000" stroke-width="1" fill="none"/>
<polygon points="759.212,320.542 758.815,312.552 770,316 " fill="#000000" stroke="none"/>
<polyline points="486,330 760,317 " stroke="#000000" stroke-width="1" fill="none"/>
<polygon points="832.957,347.984 826.846,342.822 837,337 " fill="#000000" stroke="none"/>
<polyline points="534,696 830,345 " stroke="#000000" stroke-width="1" fill="none"/>
<polygon points="755.591,253.962 753.317,246.292 765,247 " fill="#000000" stroke="none"/>
<polyline points="486,330 755,250 " stroke="#000000" stroke-width="1" fill="none"/>
<polygon points="827.278,258.384 820.601,253.976 830,247 " fill="#000000" stroke="none"/>
<polyline points="534,696 824,256 " stroke="#000000" stroke-width="1" fill="none"/>
<polygon points="761.548,172.026 757.491,165.132 769,163 " fill="#000000" stroke="none"/>
<polyline points="486,330 760,168 " stroke="#000000" stroke-width="1" fill="none"/>
<polygon points="712.314,165.571 710.356,157.814 722,159 " fill="#000000" stroke="none"/>
<polyline points="114,312 712,162 " stroke="#000000" stroke-width="1" fill="none"/>
<polygon points="726.074,94.6177 720.405,88.9737 731,84 " fill="#000000" stroke="none"/>
<polyline points="486,330 724,91 " stroke="#000000" stroke-width="1" fill="none"/>
<polygon points="207.689,240.4 205.344,248.049 196,241 " fill="#000000" stroke="none"/>
<polyline points="486,330 206,244 " stroke="#000000" stroke-width="1" fill="none"/>
<g id="Age">
<rect x="141" y="5" width="162" height="231" fill="#f8eed2" stroke-width="0"/>
<text x="210" y="19" font-family="Arial" font-size="11.25" font-weight="bold">Age</text>
<line x1="141" y1="24" x2="303" y2="24" stroke="black" stroke-width="1"/>
<text x="151" y="36" font-family="Arial" font-size="11.25">Age6569</text>
<text x="151" y="49" font-family="Arial" font-size="11.25">Age4044</text>
<text x="151" y="62" font-family="Arial" font-size="11.25">Age4549</text>
<text x="151" y="75" font-family="Arial" font-size="11.25">Age5054</text>
<text x="151" y="88" font-family="Arial" font-size="11.25">Age5559</text>
<text x="151" y="101" font-family="Arial" font-size="11.25">Age6064</text>
<text x="151" y="114" font-family="Arial" font-size="11.25">Age7579</text>
<text x="151" y="127" font-family="Arial" font-size="11.25">Age8084</text>
<text x="151" y="140" font-family="Arial" font-size="11.25">Age8589</text>
<text x="151" y="153" font-family="Arial" font-size="11.25">Age7074</text>
<text x="151" y="166" font-family="Arial" font-size="11.25">Age9599</text>
<text x="151" y="179" font-family="Arial" font-size="11.25">Age9094</text>
<text x="151" y="192" font-family="Arial" font-size="11.25">Age3539</text>
<text x="151" y="205" font-family="Arial" font-size="11.25">Age3034</text>
<text x="151" y="218" font-family="Arial" font-size="11.25">Age2529</text>
<text x="151" y="231" font-family="Arial" font-size="11.25">Age2024</text>
<text x="217" y="36" font-family="Arial" font-size="11.25">20.9</text>
<text x="217" y="49" font-family="Arial" font-size="11.25">15.9</text>
<text x="217" y="62" font-family="Arial" font-size="11.25">18.0</text>
<text x="217" y="75" font-family="Arial" font-size="11.25">13.7</text>
<text x="217" y="88" font-family="Arial" font-size="11.25">16.0</text>
<text x="217" y="101" font-family="Arial" font-size="11.25">9.52</text>
<text x="217" y="114" font-family="Arial" font-size="11.25">1.32</text>
<text x="217" y="127" font-family="Arial" font-size="11.25">0.68</text>
<text x="217" y="140" font-family="Arial" font-size="11.25">0.20</text>
<text x="217" y="153" font-family="Arial" font-size="11.25">1.77</text>
<text x="217" y="166" font-family="Arial" font-size="11.25">.024</text>
<text x="217" y="179" font-family="Arial" font-size="11.25">.095</text>
<text x="217" y="192" font-family="Arial" font-size="11.25">1.40</text>
<text x="217" y="205" font-family="Arial" font-size="11.25">0.42</text>
<text x="217" y="218" font-family="Arial" font-size="11.25">0.11</text>
<text x="217" y="231" font-family="Arial" font-size="11.25">.043</text>
<rect x="246" y="24" width="57" height="212" fill="#c6bea8" stroke-width="0"/>
<line x1="301" y1="25" x2="301" y2="235" stroke="black" stroke-width="1" stroke-dasharray="3,3"/>
<rect x="246" y="30" width="46" height="6" fill="#000000" stroke-width="0"/>
<rect x="246" y="43" width="35" height="6" fill="#000000" stroke-width="0"/>
<rect x="246" y="56" width="39" height="6" fill="#000000" stroke-width="0"/>
<rect x="246" y="69" width="30" height="6" fill="#000000" stroke-width="0"/>
<rect x="246" y="82" width="35" height="6" fill="#000000" stroke-width="0"/>
<rect x="246" y="95" width="21" height="6" fill="#000000" stroke-width="0"/>
<rect x="246" y="108" width="3" height="6" fill="#000000" stroke-width="0"/>
<rect x="246" y="121" width="1" height="6" fill="#000000" stroke-width="0"/>
<rect x="246" y="147" width="4" height="6" fill="#000000" stroke-width="0"/>
<rect x="246" y="186" width="3" height="6" fill="#000000" stroke-width="0"/>
<rect x="246" y="199" width="1" height="6" fill="#000000" stroke-width="0"/>
<rect x="246" y="24" width="57" height="212" fill-opacity="0" stroke="#000000" stroke-width="1"/>
<rect x="141" y="5" width="162" height="231" fill-opacity="0" stroke="#000000" stroke-width="1"/>
</g>
<g id="FamilyHistory">
<rect x="97" y="107" width="143" height="62" fill="#f8eed2" stroke-width="0"/>
<text x="129" y="121" font-family="Arial" font-size="11.25" font-weight="bold">FamilyHistory</text>
<line x1="97" y1="126" x2="240" y2="126" stroke="black" stroke-width="1"/>
<text x="107" y="138" font-family="Arial" font-size="11.25">None</text>
<text x="107" y="151" font-family="Arial" font-size="11.25">Major</text>
<text x="107" y="164" font-family="Arial" font-size="11.25">Minor</text>
<text x="154" y="138" font-family="Arial" font-size="11.25">58.5</text>
<text x="154" y="151" font-family="Arial" font-size="11.25">15.5</text>
<text x="154" y="164" font-family="Arial" font-size="11.25">26.0</text>
<rect x="183" y="126" width="57" height="43" fill="#c6bea8" stroke-width="0"/>
<line x1="197" y1="127" x2="197" y2="168" stroke="black" stroke-width="1" stroke-dasharray="3,3"/>
<line x1="212" y1="127" x2="212" y2="168" stroke="black" stroke-width="1" stroke-dasharray="3,3"/>
<line x1="226" y1="127" x2="226" y2="168" stroke="black" stroke-width="1" stroke-dasharray="3,3"/>
<rect x="183" y="132" width="33" height="6" fill="#000000" stroke-width="0"/>
<rect x="183" y="145" width="9" height="6" fill="#000000" stroke-width="0"/>
<rect x="183" y="158" width="15" height="6" fill="#000000" stroke-width="0"/>
<rect x="183" y="126" width="57" height="43" fill-opacity="0" stroke="#000000" stroke-width="1"/>
<rect x="97" y="107" width="143" height="62" fill-opacity="0" stroke="#000000" stroke-width="1"/>
</g>
<g id="PersonalHistory">
<rect x="83" y="468" width="134" height="49" fill="#f8eed2" stroke-width="0"/>
<text x="103" y="482" font-family="Arial" font-size="11.25" font-weight="bold">PersonalHistory</text>
<line x1="83" y1="487" x2="217" y2="487" stroke="black" stroke-width="1"/>
<text x="93" y="499" font-family="Arial" font-size="11.25">No</text>
<text x="93" y="512" font-family="Arial" font-size="11.25">Yes</text>
<text x="131" y="499" font-family="Arial" font-size="11.25">87.5</text>
<text x="131" y="512" font-family="Arial" font-size="11.25">12.5</text>
<rect x="160" y="487" width="57" height="30" fill="#c6bea8" stroke-width="0"/>
<line x1="174" y1="488" x2="174" y2="516" stroke="black" stroke-width="1" stroke-dasharray="3,3"/>
<line x1="189" y1="488" x2="189" y2="516" stroke="black" stroke-width="1" stroke-dasharray="3,3"/>
<line x1="203" y1="488" x2="203" y2="516" stroke="black" stroke-width="1" stroke-dasharray="3,3"/>
<rect x="160" y="493" width="50" height="6" fill="#000000" stroke-width="0"/>
<rect x="160" y="506" width="7" height="6" fill="#000000" stroke-width="0"/>
<rect x="160" y="487" width="57" height="30" fill-opacity="0" stroke="#000000" stroke-width="1"/>
<rect x="83" y="468" width="134" height="49" fill-opacity="0" stroke="#000000" stroke-width="1"/>
</g>
<g id="BreastDensity">
<rect x="78" y="533" width="253" height="75" fill="#f8eed2" stroke-width="0"/>
<text x="164" y="547" font-family="Arial" font-size="11.25" font-weight="bold">BreastDensity</text>
<line x1="78" y1="552" x2="331" y2="552" stroke="black" stroke-width="1"/>
<text x="88" y="564" font-family="Arial" font-size="11.25">PredominantlyFatty</text>
<text x="88" y="577" font-family="Arial" font-size="11.25">ExtremelyDense</text>
<text x="88" y="590" font-family="Arial" font-size="11.25">ScatteredFibroglandular</text>
<text x="88" y="590" font-family="Arial" font-size="11.25">...</text>
<text x="88" y="603" font-family="Arial" font-size="11.25">HeterogeneouslyDense</text>
<text x="245" y="564" font-family="Arial" font-size="11.25">11.6</text>
<text x="245" y="577" font-family="Arial" font-size="11.25">6.99</text>
<text x="245" y="590" font-family="Arial" font-size="11.25">42.8</text>
<text x="245" y="603" font-family="Arial" font-size="11.25">38.6</text>
<rect x="274" y="552" width="57" height="56" fill="#c6bea8" stroke-width="0"/>
<line x1="288" y1="553" x2="288" y2="607" stroke="black" stroke-width="1" stroke-dasharray="3,3"/>
<line x1="303" y1="553" x2="303" y2="607" stroke="black" stroke-width="1" stroke-dasharray="3,3"/>
<line x1="317" y1="553" x2="317" y2="607" stroke="black" stroke-width="1" stroke-dasharray="3,3"/>
<rect x="274" y="558" width="7" height="6" fill="#000000" stroke-width="0"/>
<rect x="274" y="571" width="4" height="6" fill="#000000" stroke-width="0"/>
<rect x="274" y="584" width="24" height="6" fill="#000000" stroke-width="0"/>
<rect x="274" y="597" width="22" height="6" fill="#000000" stroke-width="0"/>
<rect x="274" y="552" width="57" height="56" fill-opacity="0" stroke="#000000" stroke-width="1"/>
<rect x="78" y="533" width="253" height="75" fill-opacity="0" stroke="#000000" stroke-width="1"/>
</g>
<g id="MassSize">
<rect x="282" y="648" width="144" height="49" fill="#f8eed2" stroke-width="0"/>
<text x="325" y="662" font-family="Arial" font-size="11.25" font-weight="bold">MassSize</text>
<line x1="282" y1="667" x2="426" y2="667" stroke="black" stroke-width="1"/>
<text x="292" y="679" font-family="Arial" font-size="11.25">large</text>
<text x="292" y="692" font-family="Arial" font-size="11.25">small</text>
<text x="340" y="679" font-family="Arial" font-size="11.25">99.8</text>
<text x="340" y="692" font-family="Arial" font-size="11.25">0.20</text>
<rect x="369" y="667" width="57" height="30" fill="#c6bea8" stroke-width="0"/>
<line x1="383" y1="668" x2="383" y2="696" stroke="black" stroke-width="1" stroke-dasharray="3,3"/>
<line x1="398" y1="668" x2="398" y2="696" stroke="black" stroke-width="1" stroke-dasharray="3,3"/>
<line x1="412" y1="668" x2="412" y2="696" stroke="black" stroke-width="1" stroke-dasharray="3,3"/>
<rect x="369" y="673" width="57" height="6" fill="#000000" stroke-width="0"/>
<rect x="369" y="667" width="57" height="30" fill-opacity="0" stroke="#000000" stroke-width="1"/>
<rect x="282" y="648" width="144" height="49" fill-opacity="0" stroke="#000000" stroke-width="1"/>
</g>
<g id="MassStability">
<rect x="182" y="599" width="177" height="62" fill="#f8eed2" stroke-width="0"/>
<text x="231" y="613" font-family="Arial" font-size="11.25" font-weight="bold">MassStability</text>
<line x1="182" y1="618" x2="359" y2="618" stroke="black" stroke-width="1"/>
<text x="192" y="630" font-family="Arial" font-size="11.25">Increasing</text>
<text x="192" y="643" font-family="Arial" font-size="11.25">Stable</text>
<text x="192" y="656" font-family="Arial" font-size="11.25">Decreasing</text>
<text x="273" y="630" font-family="Arial" font-size="11.25">42.2</text>
<text x="273" y="643" font-family="Arial" font-size="11.25">44.8</text>
<text x="273" y="656" font-family="Arial" font-size="11.25">13.0</text>
<rect x="302" y="618" width="57" height="43" fill="#c6bea8" stroke-width="0"/>
<line x1="316" y1="619" x2="316" y2="660" stroke="black" stroke-width="1" stroke-dasharray="3,3"/>
<line x1="331" y1="619" x2="331" y2="660" stroke="black" stroke-width="1" stroke-dasharray="3,3"/>
<line x1="345" y1="619" x2="345" y2="660" stroke="black" stroke-width="1" stroke-dasharray="3,3"/>
<rect x="302" y="624" width="24" height="6" fill="#000000" stroke-width="0"/>
<rect x="302" y="637" width="26" height="6" fill="#000000" stroke-width="0"/>
<rect x="302" y="650" width="7" height="6" fill="#000000" stroke-width="0"/>
<rect x="302" y="618" width="57" height="43" fill-opacity="0" stroke="#000000" stroke-width="1"/>
<rect x="182" y="599" width="177" height="62" fill-opacity="0" stroke="#000000" stroke-width="1"/>
</g>
<g id="MassMargin">
<rect x="17" y="268" width="194" height="88" fill="#f8eed2" stroke-width="0"/>
<text x="77" y="282" font-family="Arial" font-size="11.25" font-weight="bold">MassMargin</text>
<line x1="17" y1="287" x2="211" y2="287" stroke="black" stroke-width="1"/>
<text x="27" y="299" font-family="Arial" font-size="11.25">Circumscribed</text>
<text x="27" y="312" font-family="Arial" font-size="11.25">Obscured</text>
<text x="27" y="325" font-family="Arial" font-size="11.25">Indistinct</text>
<text x="27" y="338" font-family="Arial" font-size="11.25">Spiculated</text>
<text x="27" y="351" font-family="Arial" font-size="11.25">Microlobulated</text>
<text x="125" y="299" font-family="Arial" font-size="11.25">53.4</text>
<text x="125" y="312" font-family="Arial" font-size="11.25">24.0</text>
<text x="125" y="325" font-family="Arial" font-size="11.25">17.3</text>
<text x="125" y="338" font-family="Arial" font-size="11.25">3.48</text>
<text x="125" y="351" font-family="Arial" font-size="11.25">1.96</text>
<rect x="154" y="287" width="57" height="69" fill="#c6bea8" stroke-width="0"/>
<line x1="175" y1="288" x2="175" y2="355" stroke="black" stroke-width="1" stroke-dasharray="3,3"/>
<line x1="197" y1="288" x2="197" y2="355" stroke="black" stroke-width="1" stroke-dasharray="3,3"/>
<rect x="154" y="293" width="46" height="6" fill="#000000" stroke-width="0"/>
<rect x="154" y="306" width="20" height="6" fill="#000000" stroke-width="0"/>
<rect x="154" y="319" width="15" height="6" fill="#000000" stroke-width="0"/>
<rect x="154" y="332" width="3" height="6" fill="#000000" stroke-width="0"/>
<rect x="154" y="345" width="2" height="6" fill="#000000" stroke-width="0"/>
<rect x="154" y="287" width="57" height="69" fill-opacity="0" stroke="#000000" stroke-width="1"/>
<rect x="17" y="268" width="194" height="88" fill-opacity="0" stroke="#000000" stroke-width="1"/>
</g>
<g id="MassShape">
<rect x="365" y="659" width="159" height="75" fill="#f8eed2" stroke-width="0"/>
<text x="409" y="673" font-family="Arial" font-size="11.25" font-weight="bold">MassShape</text>
<line x1="365" y1="678" x2="524" y2="678" stroke="black" stroke-width="1"/>
<text x="375" y="690" font-family="Arial" font-size="11.25">Irregular</text>
<text x="375" y="703" font-family="Arial" font-size="11.25">Oval</text>
<text x="375" y="716" font-family="Arial" font-size="11.25">Round</text>
<text x="375" y="729" font-family="Arial" font-size="11.25">Lobular</text>
<text x="438" y="690" font-family="Arial" font-size="11.25">10.5</text>
<text x="438" y="703" font-family="Arial" font-size="11.25">57.9</text>
<text x="438" y="716" font-family="Arial" font-size="11.25">22.8</text>
<text x="438" y="729" font-family="Arial" font-size="11.25">8.70</text>
<rect x="467" y="678" width="57" height="56" fill="#c6bea8" stroke-width="0"/>
<line x1="481" y1="679" x2="481" y2="733" stroke="black" stroke-width="1" stroke-dasharray="3,3"/>
<line x1="496" y1="679" x2="496" y2="733" stroke="black" stroke-width="1" stroke-dasharray="3,3"/>
<line x1="510" y1="679" x2="510" y2="733" stroke="black" stroke-width="1" stroke-dasharray="3,3"/>
<rect x="467" y="684" width="6" height="6" fill="#000000" stroke-width="0"/>
<rect x="467" y="697" width="33" height="6" fill="#000000" stroke-width="0"/>
<rect x="467" y="710" width="13" height="6" fill="#000000" stroke-width="0"/>
<rect x="467" y="723" width="5" height="6" fill="#000000" stroke-width="0"/>
<rect x="467" y="678" width="57" height="56" fill-opacity="0" stroke="#000000" stroke-width="1"/>
<rect x="365" y="659" width="159" height="75" fill-opacity="0" stroke="#000000" stroke-width="1"/>
</g>
<g id="MassDensity">
<rect x="462" y="659" width="145" height="75" fill="#f8eed2" stroke-width="0"/>
<text x="496" y="673" font-family="Arial" font-size="11.25" font-weight="bold">MassDensity</text>
<line x1="462" y1="678" x2="607" y2="678" stroke="black" stroke-width="1"/>
<text x="472" y="690" font-family="Arial" font-size="11.25">Equal</text>
<text x="472" y="703" font-family="Arial" font-size="11.25">Low</text>
<text x="472" y="716" font-family="Arial" font-size="11.25">High</text>
<text x="472" y="729" font-family="Arial" font-size="11.25">Fat</text>
<text x="521" y="690" font-family="Arial" font-size="11.25">63.9</text>
<text x="521" y="703" font-family="Arial" font-size="11.25">13.2</text>
<text x="521" y="716" font-family="Arial" font-size="11.25">17.6</text>
<text x="521" y="729" font-family="Arial" font-size="11.25">5.27</text>
<rect x="550" y="678" width="57" height="56" fill="#c6bea8" stroke-width="0"/>
<line x1="564" y1="679" x2="564" y2="733" stroke="black" stroke-width="1" stroke-dasharray="3,3"/>
<line x1="579" y1="679" x2="579" y2="733" stroke="black" stroke-width="1" stroke-dasharray="3,3"/>
<line x1="593" y1="679" x2="593" y2="733" stroke="black" stroke-width="1" stroke-dasharray="3,3"/>
<rect x="550" y="684" width="36" height="6" fill="#000000" stroke-width="0"/>
<rect x="550" y="697" width="7" height="6" fill="#000000" stroke-width="0"/>
<rect x="550" y="710" width="10" height="6" fill="#000000" stroke-width="0"/>
<rect x="550" y="723" width="3" height="6" fill="#000000" stroke-width="0"/>
<rect x="550" y="678" width="57" height="56" fill-opacity="0" stroke="#000000" stroke-width="1"/>
<rect x="462" y="659" width="145" height="75" fill-opacity="0" stroke="#000000" stroke-width="1"/>
</g>
<g id="ArchDistortion">
<rect x="33" y="378" width="175" height="49" fill="#f8eed2" stroke-width="0"/>
<text x="78" y="392" font-family="Arial" font-size="11.25" font-weight="bold">ArchDistortion</text>
<line x1="33" y1="397" x2="208" y2="397" stroke="black" stroke-width="1"/>
<text x="43" y="409" font-family="Arial" font-size="11.25">not present</text>
<text x="43" y="422" font-family="Arial" font-size="11.25">present</text>
<text x="122" y="409" font-family="Arial" font-size="11.25">96.2</text>
<text x="122" y="422" font-family="Arial" font-size="11.25">3.82</text>
<rect x="151" y="397" width="57" height="30" fill="#c6bea8" stroke-width="0"/>
<line x1="165" y1="398" x2="165" y2="426" stroke="black" stroke-width="1" stroke-dasharray="3,3"/>
<line x1="180" y1="398" x2="180" y2="426" stroke="black" stroke-width="1" stroke-dasharray="3,3"/>
<line x1="194" y1="398" x2="194" y2="426" stroke="black" stroke-width="1" stroke-dasharray="3,3"/>
<rect x="151" y="403" width="55" height="6" fill="#000000" stroke-width="0"/>
<rect x="151" y="416" width="2" height="6" fill="#000000" stroke-width="0"/>
<rect x="151" y="397" width="57" height="30" fill-opacity="0" stroke="#000000" stroke-width="1"/>
<rect x="33" y="378" width="175" height="49" fill-opacity="0" stroke="#000000" stroke-width="1"/>
</g>
<g id="SkinThickening">
<rect x="537" y="648" width="175" height="49" fill="#f8eed2" stroke-width="0"/>
<text x="579" y="662" font-family="Arial" font-size="11.25" font-weight="bold">SkinThickening</text>
<line x1="537" y1="667" x2="712" y2="667" stroke="black" stroke-width="1"/>
<text x="547" y="679" font-family="Arial" font-size="11.25">not present</text>
<text x="547" y="692" font-family="Arial" font-size="11.25">present</text>
<text x="626" y="679" font-family="Arial" font-size="11.25">99.2</text>
<text x="626" y="692" font-family="Arial" font-size="11.25">0.76</text>
<rect x="655" y="667" width="57" height="30" fill="#c6bea8" stroke-width="0"/>
<line x1="669" y1="668" x2="669" y2="696" stroke="black" stroke-width="1" stroke-dasharray="3,3"/>
<line x1="684" y1="668" x2="684" y2="696" stroke="black" stroke-width="1" stroke-dasharray="3,3"/>
<line x1="698" y1="668" x2="698" y2="696" stroke="black" stroke-width="1" stroke-dasharray="3,3"/>
<rect x="655" y="673" width="57" height="6" fill="#000000" stroke-width="0"/>
<rect x="655" y="667" width="57" height="30" fill-opacity="0" stroke="#000000" stroke-width="1"/>
<rect x="537" y="648" width="175" height="49" fill-opacity="0" stroke="#000000" stroke-width="1"/>
</g>
<g id="SkinRetraction">
<rect x="615" y="606" width="175" height="49" fill="#f8eed2" stroke-width="0"/>
<text x="659" y="620" font-family="Arial" font-size="11.25" font-weight="bold">SkinRetraction</text>
<line x1="615" y1="625" x2="790" y2="625" stroke="black" stroke-width="1"/>
<text x="625" y="637" font-family="Arial" font-size="11.25">not present</text>
<text x="625" y="650" font-family="Arial" font-size="11.25">present</text>
<text x="704" y="637" font-family="Arial" font-size="11.25">99.3</text>
<text x="704" y="650" font-family="Arial" font-size="11.25">0.66</text>
<rect x="733" y="625" width="57" height="30" fill="#c6bea8" stroke-width="0"/>
<line x1="747" y1="626" x2="747" y2="654" stroke="black" stroke-width="1" stroke-dasharray="3,3"/>
<line x1="762" y1="626" x2="762" y2="654" stroke="black" stroke-width="1" stroke-dasharray="3,3"/>
<line x1="776" y1="626" x2="776" y2="654" stroke="black" stroke-width="1" stroke-dasharray="3,3"/>
<rect x="733" y="631" width="57" height="6" fill="#000000" stroke-width="0"/>
<rect x="733" y="625" width="57" height="30" fill-opacity="0" stroke="#000000" stroke-width="1"/>
<rect x="615" y="606" width="175" height="49" fill-opacity="0" stroke="#000000" stroke-width="1"/>
</g>
<g id="NippleRetraction">
<rect x="687" y="546" width="175" height="49" fill="#f8eed2" stroke-width="0"/>
<text x="726" y="560" font-family="Arial" font-size="11.25" font-weight="bold">NippleRetraction</text>
<line x1="687" y1="565" x2="862" y2="565" stroke="black" stroke-width="1"/>
<text x="697" y="577" font-family="Arial" font-size="11.25">not present</text>
<text x="697" y="590" font-family="Arial" font-size="11.25">present</text>
<text x="776" y="577" font-family="Arial" font-size="11.25">99.9</text>
<text x="776" y="590" font-family="Arial" font-size="11.25">.081</text>
<rect x="805" y="565" width="57" height="30" fill="#c6bea8" stroke-width="0"/>
<line x1="819" y1="566" x2="819" y2="594" stroke="black" stroke-width="1" stroke-dasharray="3,3"/>
<line x1="834" y1="566" x2="834" y2="594" stroke="black" stroke-width="1" stroke-dasharray="3,3"/>
<line x1="848" y1="566" x2="848" y2="594" stroke="black" stroke-width="1" stroke-dasharray="3,3"/>
<rect x="805" y="571" width="57" height="6" fill="#000000" stroke-width="0"/>
<rect x="805" y="565" width="57" height="30" fill-opacity="0" stroke="#000000" stroke-width="1"/>
<rect x="687" y="546" width="175" height="49" fill-opacity="0" stroke="#000000" stroke-width="1"/>
</g>
<g id="TrabecularThickening">
<rect x="735" y="468" width="175" height="49" fill="#f8eed2" stroke-width="0"/>
<text x="759" y="482" font-family="Arial" font-size="11.25" font-weight="bold">TrabecularThickening</text>
<line x1="735" y1="487" x2="910" y2="487" stroke="black" stroke-width="1"/>
<text x="745" y="499" font-family="Arial" font-size="11.25">not present</text>
<text x="745" y="512" font-family="Arial" font-size="11.25">present</text>
<text x="824" y="499" font-family="Arial" font-size="11.25">99.8</text>
<text x="824" y="512" font-family="Arial" font-size="11.25">0.25</text>
<rect x="853" y="487" width="57" height="30" fill="#c6bea8" stroke-width="0"/>
<line x1="867" y1="488" x2="867" y2="516" stroke="black" stroke-width="1" stroke-dasharray="3,3"/>
<line x1="882" y1="488" x2="882" y2="516" stroke="black" stroke-width="1" stroke-dasharray="3,3"/>
<line x1="896" y1="488" x2="896" y2="516" stroke="black" stroke-width="1" stroke-dasharray="3,3"/>
<rect x="853" y="493" width="57" height="6" fill="#000000" stroke-width="0"/>
<rect x="853" y="487" width="57" height="30" fill-opacity="0" stroke="#000000" stroke-width="1"/>
<rect x="735" y="468" width="175" height="49" fill-opacity="0" stroke="#000000" stroke-width="1"/>
</g>
<g id="SkinLesion">
<rect x="765" y="378" width="175" height="49" fill="#f8eed2" stroke-width="0"/>
<text x="819" y="392" font-family="Arial" font-size="11.25" font-weight="bold">SkinLesion</text>
<line x1="765" y1="397" x2="940" y2="397" stroke="black" stroke-width="1"/>
<text x="775" y="409" font-family="Arial" font-size="11.25">not present</text>
<text x="775" y="422" font-family="Arial" font-size="11.25">present</text>
<text x="854" y="409" font-family="Arial" font-size="11.25">99.9</text>
<text x="854" y="422" font-family="Arial" font-size="11.25">0.11</text>
<rect x="883" y="397" width="57" height="30" fill="#c6bea8" stroke-width="0"/>
<line x1="897" y1="398" x2="897" y2="426" stroke="black" stroke-width="1" stroke-dasharray="3,3"/>
<line x1="912" y1="398" x2="912" y2="426" stroke="black" stroke-width="1" stroke-dasharray="3,3"/>
<line x1="926" y1="398" x2="926" y2="426" stroke="black" stroke-width="1" stroke-dasharray="3,3"/>
<rect x="883" y="403" width="57" height="6" fill="#000000" stroke-width="0"/>
<rect x="883" y="397" width="57" height="30" fill-opacity="0" stroke="#000000" stroke-width="1"/>
<rect x="765" y="378" width="175" height="49" fill-opacity="0" stroke="#000000" stroke-width="1"/>
</g>
<g id="AxillaryAdenopathy">
<rect x="771" y="288" width="175" height="49" fill="#f8eed2" stroke-width="0"/>
<text x="802" y="302" font-family="Arial" font-size="11.25" font-weight="bold">AxillaryAdenopathy</text>
<line x1="771" y1="307" x2="946" y2="307" stroke="black" stroke-width="1"/>
<text x="781" y="319" font-family="Arial" font-size="11.25">not present</text>
<text x="781" y="332" font-family="Arial" font-size="11.25">present</text>
<text x="860" y="319" font-family="Arial" font-size="11.25"> 100</text>
<text x="860" y="332" font-family="Arial" font-size="11.25">.024</text>
<rect x="889" y="307" width="57" height="30" fill="#c6bea8" stroke-width="0"/>
<line x1="903" y1="308" x2="903" y2="336" stroke="black" stroke-width="1" stroke-dasharray="3,3"/>
<line x1="918" y1="308" x2="918" y2="336" stroke="black" stroke-width="1" stroke-dasharray="3,3"/>
<line x1="932" y1="308" x2="932" y2="336" stroke="black" stroke-width="1" stroke-dasharray="3,3"/>
<rect x="889" y="313" width="57" height="6" fill="#000000" stroke-width="0"/>
<rect x="889" y="307" width="57" height="30" fill-opacity="0" stroke="#000000" stroke-width="1"/>
<rect x="771" y="288" width="175" height="49" fill-opacity="0" stroke="#000000" stroke-width="1"/>
</g>
<g id="LymphNode">
<rect x="759" y="198" width="175" height="49" fill="#f8eed2" stroke-width="0"/>
<text x="812" y="212" font-family="Arial" font-size="11.25" font-weight="bold">LymphNode</text>
<line x1="759" y1="217" x2="934" y2="217" stroke="black" stroke-width="1"/>
<text x="769" y="229" font-family="Arial" font-size="11.25">not present</text>
<text x="769" y="242" font-family="Arial" font-size="11.25">present</text>
<text x="848" y="229" font-family="Arial" font-size="11.25">99.2</text>
<text x="848" y="242" font-family="Arial" font-size="11.25">0.80</text>
<rect x="877" y="217" width="57" height="30" fill="#c6bea8" stroke-width="0"/>
<line x1="891" y1="218" x2="891" y2="246" stroke="black" stroke-width="1" stroke-dasharray="3,3"/>
<line x1="906" y1="218" x2="906" y2="246" stroke="black" stroke-width="1" stroke-dasharray="3,3"/>
<line x1="920" y1="218" x2="920" y2="246" stroke="black" stroke-width="1" stroke-dasharray="3,3"/>
<rect x="877" y="223" width="57" height="6" fill="#000000" stroke-width="0"/>
<rect x="877" y="217" width="57" height="30" fill-opacity="0" stroke="#000000" stroke-width="1"/>
<rect x="759" y="198" width="175" height="49" fill-opacity="0" stroke="#000000" stroke-width="1"/>
</g>
<g id="AsymmetricDensity">
<rect x="723" y="114" width="175" height="49" fill="#f8eed2" stroke-width="0"/>
<text x="754" y="128" font-family="Arial" font-size="11.25" font-weight="bold">AsymmetricDensity</text>
<line x1="723" y1="133" x2="898" y2="133" stroke="black" stroke-width="1"/>
<text x="733" y="145" font-family="Arial" font-size="11.25">present</text>
<text x="733" y="158" font-family="Arial" font-size="11.25">not present</text>
<text x="812" y="145" font-family="Arial" font-size="11.25">16.6</text>
<text x="812" y="158" font-family="Arial" font-size="11.25">83.4</text>
<rect x="841" y="133" width="57" height="30" fill="#c6bea8" stroke-width="0"/>
<line x1="855" y1="134" x2="855" y2="162" stroke="black" stroke-width="1" stroke-dasharray="3,3"/>
<line x1="870" y1="134" x2="870" y2="162" stroke="black" stroke-width="1" stroke-dasharray="3,3"/>
<line x1="884" y1="134" x2="884" y2="162" stroke="black" stroke-width="1" stroke-dasharray="3,3"/>
<rect x="841" y="139" width="9" height="6" fill="#000000" stroke-width="0"/>
<rect x="841" y="152" width="48" height="6" fill="#000000" stroke-width="0"/>
<rect x="841" y="133" width="57" height="30" fill-opacity="0" stroke="#000000" stroke-width="1"/>
<rect x="723" y="114" width="175" height="49" fill-opacity="0" stroke="#000000" stroke-width="1"/>
</g>
<g id="TubularDensity">
<rect x="663" y="48" width="175" height="36" fill="#d3caa6" stroke-width="0"/>
<text x="707" y="62" font-family="Arial" font-size="11.25" font-weight="bold">TubularDensity</text>
<line x1="663" y1="67" x2="838" y2="67" stroke="black" stroke-width="1"/>
<text x="673" y="79" font-family="Arial" font-size="11.25">not present</text>
<text x="752" y="79" font-family="Arial" font-size="11.25"> 100</text>
<rect x="781" y="67" width="57" height="17" fill="#a9a285" stroke-width="0"/>
<line x1="795" y1="68" x2="795" y2="83" stroke="black" stroke-width="1" stroke-dasharray="3,3"/>
<line x1="810" y1="68" x2="810" y2="83" stroke="black" stroke-width="1" stroke-dasharray="3,3"/>
<line x1="824" y1="68" x2="824" y2="83" stroke="black" stroke-width="1" stroke-dasharray="3,3"/>
<rect x="781" y="73" width="57" height="6" fill="#000000" stroke-width="0"/>
<rect x="781" y="67" width="57" height="17" fill-opacity="0" stroke="#000000" stroke-width="1"/>
<rect x="663" y="48" width="175" height="36" fill-opacity="0" stroke="#000000" stroke-width="1"/>
</g>
<g id="BIRADSCategory">
<rect x="69" y="159" width="127" height="127" fill="#f8eed2" stroke-width="0"/>
<text x="84" y="173" font-family="Arial" font-size="11.25" font-weight="bold">BIRADSCategory</text>
<line x1="69" y1="178" x2="196" y2="178" stroke="black" stroke-width="1"/>
<text x="79" y="190" font-family="Arial" font-size="11.25">b0</text>
<text x="79" y="203" font-family="Arial" font-size="11.25">b2</text>
<text x="79" y="216" font-family="Arial" font-size="11.25">b3</text>
<text x="79" y="229" font-family="Arial" font-size="11.25">b4</text>
<text x="79" y="242" font-family="Arial" font-size="11.25">b5</text>
<text x="79" y="255" font-family="Arial" font-size="11.25">b7</text>
<text x="79" y="268" font-family="Arial" font-size="11.25">b9</text>
<text x="79" y="281" font-family="Arial" font-size="11.25">b8</text>
<text x="110" y="190" font-family="Arial" font-size="11.25">20.2</text>
<text x="110" y="203" font-family="Arial" font-size="11.25">47.9</text>
<text x="110" y="216" font-family="Arial" font-size="11.25">28.0</text>
<text x="110" y="229" font-family="Arial" font-size="11.25">0.97</text>
<text x="110" y="242" font-family="Arial" font-size="11.25">1.20</text>
<text x="110" y="255" font-family="Arial" font-size="11.25">1.04</text>
<text x="110" y="268" font-family="Arial" font-size="11.25">0.32</text>
<text x="110" y="281" font-family="Arial" font-size="11.25">0.39</text>
<rect x="139" y="178" width="57" height="108" fill="#c6bea8" stroke-width="0"/>
<line x1="163" y1="179" x2="163" y2="285" stroke="black" stroke-width="1" stroke-dasharray="3,3"/>
<line x1="187" y1="179" x2="187" y2="285" stroke="black" stroke-width="1" stroke-dasharray="3,3"/>
<rect x="139" y="184" width="19" height="6" fill="#000000" stroke-width="0"/>
<rect x="139" y="197" width="46" height="6" fill="#000000" stroke-width="0"/>
<rect x="139" y="210" width="27" height="6" fill="#000000" stroke-width="0"/>
<rect x="139" y="223" width="1" height="6" fill="#000000" stroke-width="0"/>
<rect x="139" y="236" width="1" height="6" fill="#000000" stroke-width="0"/>
<rect x="139" y="249" width="1" height="6" fill="#000000" stroke-width="0"/>
<rect x="139" y="178" width="57" height="108" fill-opacity="0" stroke="#000000" stroke-width="1"/>
<rect x="69" y="159" width="127" height="127" fill-opacity="0" stroke="#000000" stroke-width="1"/>
</g>
<g id="RegOutcome">
<rect x="403" y="306" width="166" height="49" fill="#f8eed2" stroke-width="0"/>
<text x="448" y="320" font-family="Arial" font-size="11.25" font-weight="bold">RegOutcome</text>
<line x1="403" y1="325" x2="569" y2="325" stroke="black" stroke-width="1"/>
<text x="413" y="337" font-family="Arial" font-size="11.25">Benign</text>
<text x="413" y="350" font-family="Arial" font-size="11.25">Malignant</text>
<text x="483" y="337" font-family="Arial" font-size="11.25">97.3</text>
<text x="483" y="350" font-family="Arial" font-size="11.25">2.74</text>
<rect x="512" y="325" width="57" height="30" fill="#c6bea8" stroke-width="0"/>
<line x1="526" y1="326" x2="526" y2="354" stroke="black" stroke-width="1" stroke-dasharray="3,3"/>
<line x1="541" y1="326" x2="541" y2="354" stroke="black" stroke-width="1" stroke-dasharray="3,3"/>
<line x1="555" y1="326" x2="555" y2="354" stroke="black" stroke-width="1" stroke-dasharray="3,3"/>
<rect x="512" y="331" width="55" height="6" fill="#000000" stroke-width="0"/>
<rect x="512" y="344" width="2" height="6" fill="#000000" stroke-width="0"/>
<rect x="512" y="325" width="57" height="30" fill-opacity="0" stroke="#000000" stroke-width="1"/>
<rect x="403" y="306" width="166" height="49" fill-opacity="0" stroke="#000000" stroke-width="1"/>
</g>

</svg>

